<?xml version="1.0" standalone="no"?>
<!DOCTYPE svg PUBLIC "-//W3C//DTD SVG 20010904//EN"
 "http://www.w3.org/TR/2001/REC-SVG-20010904/DTD/svg10.dtd">
<svg version="1.0" xmlns="http://www.w3.org/2000/svg"
 width="400.000000pt" height="400.000000pt" viewBox="0 0 400.000000 400.000000"
 preserveAspectRatio="xMidYMid meet">
<metadata>
Created by potrace 1.11, written by Peter Selinger 2001-2013
</metadata>
<g transform="translate(0.000000,400.000000) scale(0.100000,-0.100000)"
fill="#000000" stroke="none">
<path d="M450 1996 l1 -1774 32 9 c18 5 44 12 59 14 14 3 66 14 115 26 48 11
124 29 168 39 78 18 425 98 455 105 119 27 363 86 369 90 5 2 8 677 8 1500 0
1360 -2 1495 -16 1499 -35 10 -158 38 -181 43 -14 2 -74 15 -135 29 -60 14
-121 28 -135 30 -14 3 -32 7 -40 10 -8 3 -24 8 -35 10 -11 2 -70 15 -130 29
-61 14 -159 36 -220 50 -60 13 -148 33 -195 44 -47 12 -93 21 -102 21 -17 0
-18 -96 -18 -1774z"/>
<path d="M1878 3462 c-14 -3 -15 -158 -15 -1497 l0 -1495 96 0 96 0 -1 1343
c0 738 1 1347 3 1352 2 6 143 9 401 8 218 -1 507 -3 642 -3 l245 0 0 -1350 0
-1350 102 0 103 0 -1 1495 0 1495 -27 1 c-84 2 -1631 3 -1644 1z"/>
</g>
</svg>
